<?xml version="1.0" standalone="no"?><!DOCTYPE svg PUBLIC "-//W3C//DTD SVG 1.1//EN" "http://www.w3.org/Graphics/SVG/1.1/DTD/svg11.dtd">
<svg t="1660841857761" class="icon" viewBox="0 0 1024 1024" version="1.1"
    xmlns="http://www.w3.org/2000/svg" p-id="1544"
    xmlns:xlink="http://www.w3.org/1999/xlink" width="64" height="64">
    <defs>
        <style type="text/css">@font-face { font-family: feedback-iconfont; src: url("//at.alicdn.com/t/font_1031158_u69w8yhxdu.woff2?t=1630033759944") format("woff2"), url("//at.alicdn.com/t/font_1031158_u69w8yhxdu.woff?t=1630033759944") format("woff"), url("//at.alicdn.com/t/font_1031158_u69w8yhxdu.ttf?t=1630033759944") format("truetype"); }
        </style>
    </defs>
    <path d="M725.704348 387.33913V289.391304c0-24.486957-20.034783-44.521739-44.521739-44.521739h-209.252174c-24.486957 0-44.521739 20.034783-44.521739 44.521739v95.721739c-106.852174 62.330435-178.086957 180.313043-178.086957 284.939131 0 202.573913 146.921739 307.2 327.234783 307.2s327.234783-95.721739 327.234782-307.2c0-102.4-73.46087-220.382609-178.086956-282.713044z" fill="#cccccc" p-id="1545"></path>
    <path d="M509.773913 801.391304c-80.13913 0-144.695652-64.556522-144.695652-144.695652s64.556522-144.695652 144.695652-144.695652 144.695652 64.556522 144.695652 144.695652-64.556522 144.695652-144.695652 144.695652z m0-244.869565C454.121739 556.521739 409.6 601.043478 409.6 656.695652s44.521739 100.173913 100.173913 100.173913 100.173913-44.521739 100.173913-100.173913-44.521739-100.173913-100.173913-100.173913z" fill="#cccccc" p-id="1546"></path>
    <path d="M498.643478 178.086957l33.391305 2.226086v378.434783L498.643478 556.521739V178.086957z" fill="#cccccc" p-id="1547"></path>
    <path d="M509.773913 1024C273.808696 1024 120.208696 879.304348 120.208696 656.695652c0-124.66087 82.365217-258.226087 200.347826-333.913043V222.608696c0-37.843478 28.93913-66.782609 66.782608-66.782609h244.869566c37.843478 0 66.782609 28.93913 66.782608 66.782609v102.4c117.982609 75.686957 200.347826 209.252174 200.347826 331.686956C899.33913 883.756522 750.191304 1024 509.773913 1024zM387.33913 200.347826c-13.356522 0-22.26087 8.904348-22.260869 22.26087v126.886956l-11.130435 6.678261C244.869565 418.504348 164.730435 545.391304 164.730435 656.695652 164.730435 852.591304 300.521739 979.478261 509.773913 979.478261 725.704348 979.478261 854.817391 859.269565 854.817391 656.695652c0-109.078261-80.13913-235.965217-189.217391-300.521739l-11.130435-6.678261V222.608696c0-13.356522-8.904348-22.26087-22.260869-22.26087H387.33913zM342.817391 89.043478h333.913044v44.521739H342.817391zM342.817391 0h333.913044v44.521739H342.817391z" fill="#cccccc" p-id="1548"></path>
    <path d="M612.173913 868.173913l-6.678261-44.521739c131.33913-17.808696 115.756522-191.443478 113.530435-198.121739l44.521739-4.452174c11.130435 77.913043-11.130435 229.286957-151.373913 247.095652z" fill="#cccccc" p-id="1549"></path>
</svg>